<?xml version="1.0" standalone="no"?>
<!DOCTYPE svg PUBLIC "-//W3C//DTD SVG 20010904//EN"
 "http://www.w3.org/TR/2001/REC-SVG-20010904/DTD/svg10.dtd">
<svg version="1.0" xmlns="http://www.w3.org/2000/svg"
 width="2496.000000pt" height="2496.000000pt" viewBox="0 0 2496.000000 2496.000000"
 preserveAspectRatio="xMidYMid meet">
<metadata>
Created by potrace 1.16, written by Peter Selinger 2001-2019
</metadata>
<g transform="translate(0.000000,2496.000000) scale(0.100000,-0.100000)"
fill="#000000" stroke="none">
<path d="M15120 19833 c-42 -7 -147 -42 -207 -69 -228 -102 -302 -143 -483
-265 -377 -254 -764 -651 -1047 -1074 -195 -293 -474 -791 -601 -1075 -11 -25
-39 -85 -62 -135 -55 -118 -220 -503 -220 -513 0 -5 -9 -27 -20 -50 -11 -22
-20 -46 -20 -52 0 -5 -4 -18 -9 -28 -10 -17 -77 -191 -176 -457 -129 -344
-419 -1241 -495 -1530 -88 -335 -70 -306 -200 -324 -164 -23 -551 -94 -765
-140 -184 -39 -693 -160 -805 -190 l-75 -21 -18 21 c-9 12 -17 27 -17 33 0 7
-8 39 -19 72 -25 79 -53 170 -86 279 -158 525 -564 1772 -614 1890 -5 11 -14
36 -21 55 -7 19 -16 44 -21 55 -4 11 -15 43 -24 70 -16 50 -125 334 -150 390
-7 17 -26 62 -41 100 -40 101 -185 389 -245 486 -259 419 -662 742 -1189 954
-374 150 -569 149 -610 -5 -18 -67 4 -141 166 -547 80 -202 165 -417 189 -478
23 -60 53 -135 67 -165 14 -31 33 -77 42 -103 9 -26 60 -161 115 -299 54 -139
118 -302 141 -363 23 -60 66 -175 97 -255 91 -239 109 -287 178 -475 37 -99
79 -214 95 -255 16 -41 47 -127 70 -190 23 -63 56 -151 72 -195 17 -44 48
-129 69 -190 21 -60 56 -162 79 -225 23 -63 49 -140 59 -170 10 -30 44 -127
75 -215 157 -442 231 -676 216 -685 -8 -5 -55 -23 -105 -39 -49 -16 -128 -44
-175 -61 -47 -18 -96 -36 -110 -40 -86 -29 -495 -184 -555 -210 -293 -131
-355 -180 -355 -280 0 -90 78 -163 219 -206 54 -16 250 -19 332 -4 30 5 108
18 174 30 146 25 166 29 233 41 121 21 166 30 347 63 105 20 197 36 206 36 24
0 33 -25 253 -700 172 -529 312 -971 469 -1480 25 -80 63 -203 85 -275 22 -71
52 -168 65 -215 34 -116 99 -331 263 -865 36 -115 87 -284 115 -375 28 -91 59
-192 69 -225 35 -114 102 -330 150 -485 26 -85 78 -254 115 -375 347 -1146
465 -1443 598 -1512 49 -25 124 -13 158 25 53 59 57 87 99 712 31 452 46 635
86 1040 43 442 121 1055 164 1290 9 54 33 191 50 300 12 72 47 263 59 320 5
25 32 158 60 295 28 138 65 304 81 370 16 66 43 179 60 250 35 150 128 504
171 650 16 55 35 118 41 140 6 22 19 65 29 95 9 30 38 127 64 215 46 161 206
664 250 785 13 36 44 126 69 200 52 155 169 492 184 531 10 24 19 28 84 38 40
7 93 16 118 21 46 9 123 22 230 40 33 6 86 14 118 20 55 9 113 18 257 40 178
27 802 131 872 145 337 68 226 325 -195 454 -199 61 -599 100 -1029 101 -84 0
-123 4 -123 11 0 21 146 394 206 527 13 29 24 55 24 57 0 3 9 24 19 48 11 23
49 110 84 192 36 83 77 177 92 210 15 33 39 87 55 120 15 33 46 105 70 160 24
55 75 162 112 238 37 76 68 139 68 141 0 30 448 916 630 1246 26 47 68 126 95
175 71 134 221 407 283 515 589 1034 729 1325 740 1542 10 194 -107 286 -318
251z m-3660 -6492 c0 -11 -16 -89 -35 -173 -19 -84 -39 -178 -46 -208 -6 -30
-24 -109 -40 -175 -15 -66 -35 -156 -44 -200 -9 -44 -34 -165 -56 -270 -44
-209 -145 -714 -179 -895 -12 -63 -35 -180 -50 -260 -16 -80 -45 -251 -65
-380 -21 -129 -40 -242 -42 -250 -7 -23 -17 1 -48 115 -24 88 -57 202 -175
610 -16 55 -44 154 -63 220 -19 66 -83 287 -142 490 -59 204 -124 431 -145
505 -21 74 -60 214 -88 310 -86 301 -90 319 -77 330 10 8 100 29 245 57 14 3
113 22 220 43 233 46 617 118 715 135 105 18 115 18 115 -4z"/>
<path d="M15300 13574 c-324 -29 -575 -88 -951 -223 -287 -103 -672 -317 -954
-529 -466 -351 -929 -883 -1190 -1367 -21 -38 -41 -74 -45 -80 -69 -94 -284
-614 -336 -811 -8 -30 -21 -80 -29 -111 -25 -93 -44 -193 -51 -269 -6 -65 -4
-74 15 -93 11 -11 25 -21 30 -21 30 0 86 62 175 195 177 262 208 307 295 425
747 1008 1639 1682 2566 1938 61 17 103 26 215 49 169 33 518 46 632 22 253
-53 373 -100 513 -203 199 -148 298 -326 366 -661 28 -136 13 -512 -28 -715
-9 -41 -19 -95 -24 -120 -40 -220 -168 -605 -303 -907 -154 -345 -470 -908
-660 -1175 -23 -31 -63 -90 -91 -130 -399 -581 -918 -1145 -1520 -1654 -494
-416 -1038 -767 -1710 -1101 -478 -237 -629 -361 -600 -493 17 -78 94 -105
295 -103 718 7 1885 500 2850 1202 819 596 1535 1372 2012 2181 51 88 96 159
100 159 4 1 12 -18 19 -41 260 -951 871 -1569 1720 -1742 735 -150 1598 85
2045 556 110 116 143 199 108 273 -42 88 -156 86 -409 -8 -22 -8 -65 -22 -95
-32 -30 -9 -107 -32 -170 -52 -589 -180 -1175 -121 -1606 163 -1040 684 -1025
2497 36 4399 215 384 239 435 261 544 34 164 -65 291 -227 291 -96 0 -160 -17
-269 -71 -289 -143 -534 -420 -778 -879 -62 -116 -72 -126 -82 -78 -4 18 -25
85 -45 149 -254 778 -1059 1212 -2080 1123z"/>
<path d="M19005 9616 c-170 -41 -318 -182 -360 -341 -120 -461 382 -798 762
-511 134 103 192 238 180 428 -18 284 -303 492 -582 424z"/>
</g>
</svg>
